<svg width="97" height="15" viewBox="0 0 97 15" fill="none" xmlns="http://www.w3.org/2000/svg">
<path d="M14.102 7.49042C14.102 3.78543 17.1524 0.789126 20.9665 0.789126C24.8072 0.789126 27.8585 3.7871 27.8585 7.49042C27.8585 11.1679 24.8072 14.2192 20.9665 14.2192C17.1524 14.2192 14.102 11.1646 14.102 7.49042ZM24.5624 7.49042C24.5624 5.63834 22.9552 4.00362 20.9665 4.00362C19.0053 4.00362 17.3981 5.63834 17.3981 7.49042C17.3981 9.36998 19.0053 11.0047 20.9665 11.0047C22.9585 11.0047 24.5624 9.36998 24.5624 7.49042ZM83.3251 7.59951C83.3251 3.5406 86.6212 0.789126 89.6183 0.789126C91.6611 0.789126 92.8328 1.41537 93.6223 2.61456L93.9362 1.03229H97V13.9735H93.9362L93.5407 12.6411C92.6421 13.6221 91.5246 14.2234 89.6183 14.2234C86.6762 14.2192 83.3251 11.6309 83.3251 7.59951ZM93.7855 7.57203C93.778 5.61278 92.1641 4.00487 90.2046 4.00487C88.2401 4.00487 86.6237 5.62135 86.6237 7.58577V7.59951C86.6237 9.39746 88.2309 11.0047 90.1929 11.0047C92.1791 11.0047 93.7855 9.39746 93.7855 7.57203ZM79.5602 2.53211V1.03313H76.2099V13.9735H79.5602V7.00075C79.5602 4.90301 80.5961 3.81374 82.3916 3.81374C82.5107 3.81374 82.6239 3.82207 82.7347 3.8329L83.3559 0.70918C81.6096 0.718341 80.3438 1.3171 79.5602 2.53211ZM45.8938 2.53295V1.03396L42.5436 1.04146L42.5719 13.9802L45.9221 13.9727L45.9038 7.00075C45.8988 4.90384 46.9322 3.81208 48.7294 3.80791C48.844 3.80825 48.9585 3.81466 49.0725 3.82707L49.6904 0.70002C47.9416 0.714177 46.6741 1.31544 45.8938 2.53295ZM29.0194 8.96109V1.03396H32.3688V8.55304C32.3688 10.2144 33.2948 11.1954 34.9021 11.1954C36.7 11.1954 37.7335 10.1053 37.7335 8.00757V1.03396H41.0845V13.9735H37.736V12.4745C36.9465 13.7004 35.6657 14.3 33.8952 14.3C30.8989 14.3008 29.0194 12.1215 29.0194 8.96109ZM61.6423 7.50541C61.6498 3.88203 64.243 0.781631 68.3561 0.789126C72.1702 0.796621 74.8608 3.85205 74.8517 7.45128C74.8525 7.80712 74.8242 8.16247 74.7684 8.51389L64.9076 8.49557C65.2857 10.0487 66.564 11.1679 68.4985 11.1721C69.6693 11.1721 70.9235 10.7407 71.688 9.76138L73.9731 11.5935C72.7981 13.2532 70.7253 14.23 68.5201 14.2259C64.6269 14.2125 61.6356 11.292 61.6423 7.50541ZM71.479 6.16132C71.2907 4.85387 69.9308 3.84289 68.3236 3.84039C66.7705 3.84039 65.5163 4.76144 65.0233 6.14966L71.479 6.16132ZM49.7104 11.1529L52.6883 9.594C53.1805 10.6608 54.1649 11.2895 55.5597 11.2895C56.8447 11.2895 57.3369 10.8798 57.3369 10.3052C57.3369 8.22326 50.2825 9.4849 50.2825 4.72563C50.2825 2.10074 52.5793 0.706682 55.4223 0.706682C57.5825 0.706682 59.4962 1.66353 60.5355 3.44066L57.5842 5.00211C57.147 4.12687 56.3267 3.6347 55.2874 3.6347C54.2764 3.6347 53.7834 3.99029 53.7834 4.59155C53.7834 6.61518 60.8378 5.33022 60.8378 10.1711C60.8378 12.6869 58.7876 14.2175 55.479 14.2175C52.6625 14.215 50.6939 13.2857 49.7104 11.1529ZM0.798492 7.49042C0.798492 3.75878 3.84893 0.761645 7.66301 0.761645C9.99035 0.745322 12.1751 1.90562 13.4649 3.84289L10.6052 5.50177C10.2741 5.02908 9.83366 4.64348 9.32136 4.37782C8.80905 4.11217 8.24009 3.97436 7.66301 3.97613C5.70184 3.97613 4.09459 5.61086 4.09459 7.49042C4.09459 9.36998 5.70184 11.0047 7.66301 11.0047C8.26729 11.0083 8.86242 10.8571 9.39173 10.5656C9.92103 10.274 10.3669 9.85182 10.6868 9.33917L13.5182 11.028C12.2435 13.0229 10.0287 14.2284 7.66135 14.2159C3.84893 14.2192 0.798492 11.1646 0.798492 7.49042Z" fill="#B8AA93"/>
</svg>
