<svg width="112" height="27" viewBox="0 0 112 27" fill="none" xmlns="http://www.w3.org/2000/svg">
<path d="M21.1898 0.0849876L23.6468 3.53087L36.0783 0.0849876H21.1898ZM8.27346 26.915L14.9983 20.3404L10.9508 15.9969L8.27346 26.915ZM20.1716 0.0849876L16.5773 3.32612L22.6226 3.55164L20.1716 0.0849876ZM6.19888 0.0849876L7.48969 2.73079L14.604 3.17404L6.19888 0.0849876ZM10.0075 13.804L15.2635 3.99897L0 3.17404L10.0075 13.804ZM10.6195 14.4256L15.5844 19.7588L21.0611 14.3904L22.7606 4.39141L16.0866 4.0509" fill="#B8AA93"/>
<path d="M31.6953 12.6601H30.334L29.1419 20.1846C29.1107 20.382 28.9241 20.5429 28.7264 20.5429H26.0039C25.8065 20.5429 25.6711 20.382 25.7023 20.1846L27.3737 9.63186C27.7965 6.96306 29.1437 6.37144 30.9891 6.37144C31.5622 6.37144 32.1627 6.42559 32.6323 6.51498C32.8415 6.55096 32.9828 6.67634 32.9513 6.8733L32.6816 8.57584C32.6504 8.77243 32.4665 8.91597 32.2513 8.91597H31.4995C31.0518 8.91597 30.8978 9.09476 30.8133 9.6326L30.7365 10.1159H32.0978C32.2951 10.1159 32.4305 10.2769 32.3993 10.4746L32.11 12.3018C32.0781 12.4991 31.8912 12.6601 31.6946 12.6601H31.6953ZM38.4906 12.7854H38.2403C37.4699 12.7854 36.7184 12.893 36.1149 13.1972L35.014 20.1483C34.9828 20.346 34.8081 20.5426 34.593 20.5426H31.906C31.6909 20.5426 31.5432 20.346 31.5744 20.1487L33.1063 10.475C33.1378 10.2773 33.2706 10.1159 33.5217 10.1159H36.1011C36.3519 10.1159 36.4454 10.2057 36.4027 10.4746L36.3348 10.9041C37.2744 10.0621 37.9335 9.97236 38.8831 9.97236C39.1872 9.97236 39.2295 10.044 39.1843 10.331L38.8378 12.5165C38.8044 12.7317 38.7239 12.7854 38.491 12.7854H38.4906ZM47.4915 16.297H41.9202L41.915 16.3326C41.7644 17.2822 42.0652 17.873 43.3727 17.873C44.3223 17.873 46.0916 17.784 46.799 17.7295C47.0883 17.7109 47.1869 17.7647 47.1439 18.0336L46.8891 19.6464C46.8438 19.9331 46.7518 20.0581 46.4514 20.1483C45.2452 20.5251 43.981 20.7039 42.4762 20.7039C40.0578 20.7039 38.0203 19.4317 38.5622 16.0103L38.7495 14.8278C39.2484 11.6749 41.3479 9.95493 44.2859 9.95493C47.421 9.95493 48.5568 11.9431 48.1002 14.8274L47.9295 15.9031C47.8924 16.1353 47.7051 16.2962 47.4904 16.2962L47.4915 16.297ZM44.8809 14.3441C45.0515 13.2691 44.7233 12.6241 43.8275 12.6241C42.9677 12.6241 42.4002 13.2695 42.2299 14.3441L42.2218 14.3979H44.8727L44.8813 14.3441H44.8809ZM57.407 16.297H51.8357L51.8305 16.3326C51.6799 17.2822 51.9808 17.873 53.2883 17.873C54.2378 17.873 56.0071 17.784 56.7145 17.7295C57.0038 17.7109 57.1032 17.7647 57.0606 18.0336L56.8054 19.6464C56.7601 19.9331 56.6681 20.0581 56.3677 20.1483C55.1614 20.5251 53.8973 20.7039 52.3925 20.7039C49.9741 20.7039 47.9366 19.4317 48.4785 16.0103L48.6658 14.8278C49.1654 11.6749 51.2649 9.95493 54.203 9.95493C57.338 9.95493 58.4738 11.9431 58.0172 14.8274L57.8473 15.9031C57.8102 16.1353 57.6229 16.2962 57.4081 16.2962L57.407 16.297ZM54.7957 14.3441C54.9663 13.2691 54.6384 12.6241 53.743 12.6241C52.8832 12.6241 52.315 13.2695 52.1451 14.3441L52.1365 14.3979H54.7872L54.7957 14.3441ZM61.0428 20.5429H58.338C58.1407 20.5429 57.9753 20.3464 58.0064 20.149L60.0806 7.05245C60.1118 6.85586 60.3343 6.69451 60.5313 6.69451H63.2364C63.4338 6.69451 63.5692 6.85512 63.538 7.05208L61.4638 20.1487C61.4326 20.3452 61.2401 20.5426 61.0432 20.5426L61.0428 20.5429ZM70.5633 20.5429H68.0733C67.8767 20.5429 67.7406 20.382 67.7717 20.1846L67.8318 19.8085C67.0714 20.31 66.1137 20.7039 65.1285 20.7039C63.7134 20.7039 62.1901 19.9157 62.5729 17.4973L62.607 17.2822C62.9475 15.1323 64.6997 14.3619 67.6912 14.3619H68.4616L68.544 13.8426C68.6831 12.965 68.4216 12.804 67.5262 12.804C66.5228 12.804 64.8963 12.893 64.3889 12.9294C64.0818 12.9472 64.018 12.7858 64.0514 12.5707L64.327 10.8333C64.3696 10.5647 64.5273 10.4753 64.7535 10.403C65.373 10.2242 66.9531 9.97273 68.1 9.97273C70.6976 9.97273 72.4487 10.9049 71.9836 13.843L70.9791 20.185C70.9476 20.3823 70.7603 20.5433 70.5637 20.5433L70.5633 20.5429ZM68.2736 16.2254H67.396C66.5002 16.2254 66.0966 16.5121 65.9776 17.264L65.949 17.4435C65.8526 18.0529 66.2361 18.2321 66.7376 18.2321C67.1679 18.2321 67.6712 18.106 67.9987 17.9635L68.2732 16.2254H68.2736ZM80.9087 20.5429H78.2218C78.0066 20.5429 77.859 20.3464 77.8901 20.149L78.852 14.0755C79.0022 13.126 78.7462 12.8218 77.9395 12.8218C77.5278 12.8218 76.9825 12.9824 76.5366 13.1979L75.4361 20.149C75.405 20.3464 75.2303 20.5429 75.0151 20.5429H72.3281C72.113 20.5429 71.9654 20.3464 71.9965 20.149L73.5281 10.4746C73.5596 10.2773 73.7462 10.1159 73.9435 10.1159H76.4335C76.6309 10.1159 76.7662 10.2769 76.7351 10.4746L76.6698 10.8863C77.7325 10.1697 78.767 9.97236 79.7707 9.97236C82.5823 9.97236 82.6291 11.9431 82.2915 14.0748L81.3297 20.1487C81.2982 20.3464 81.1235 20.5433 80.9087 20.5433V20.5429ZM88.8558 20.4176C88.2241 20.5608 87.4129 20.7039 86.3565 20.7039C83.6154 20.7039 82.3531 18.9483 82.8186 16.0103L83.0315 14.6668C83.4944 11.7465 85.3186 9.95493 88.0594 9.95493C89.1165 9.95493 89.9863 10.1155 90.4682 10.2405C90.6922 10.2947 90.8035 10.3845 90.7664 10.6174L90.4459 12.6419C90.4118 12.857 90.279 13.018 90.0156 12.982C89.4147 12.929 88.8532 12.857 87.9756 12.857C87.2055 12.857 86.681 13.3411 86.4711 14.6671L86.2582 16.0099C86.0482 17.3359 86.4225 17.8014 87.1929 17.8014C88.0701 17.8014 88.6492 17.7658 89.2701 17.6939C89.5446 17.6586 89.6291 17.8014 89.5928 18.0344L89.2745 20.0411C89.2374 20.2748 89.0976 20.3638 88.8554 20.4179L88.8558 20.4176ZM99.3703 16.297H93.7991L93.7935 16.3326C93.6429 17.2822 93.9437 17.873 95.2512 17.873C96.2008 17.873 97.9701 17.784 98.6775 17.7295C98.9668 17.7109 99.0658 17.7647 99.0235 18.0336L98.7676 19.6464C98.7231 19.9331 98.6311 20.0581 98.3299 20.1483C97.1244 20.5251 95.8596 20.7039 94.3551 20.7039C91.9367 20.7039 89.8988 19.4317 90.4407 16.0103L90.628 14.8278C91.1273 11.6749 93.2267 9.95493 96.1648 9.95493C99.2991 9.95493 100.436 11.9431 99.9787 14.8274L99.808 15.9031C99.7709 16.1353 99.584 16.2962 99.3692 16.2962L99.3703 16.297ZM96.759 14.3441C96.9297 13.2691 96.6018 12.6241 95.7056 12.6241C94.8462 12.6241 94.2783 13.2695 94.108 14.3441L94.0995 14.3979H96.7505L96.759 14.3441ZM105.004 10.1159L103.409 20.1487C103.377 20.3464 103.203 20.5429 102.988 20.5429H100.301C100.085 20.5429 99.9379 20.3464 99.969 20.149L101.028 13.5117L105.004 10.1167L105.004 10.1159Z" fill="#B8AA93"/>
<path d="M105.919 10.1158L105.369 13.558L111.278 10.1158" fill="#B8AA93"/>
</svg>
